<?xml version="1.0" encoding="UTF-8" standalone="no" ?>
<!DOCTYPE svg PUBLIC "-//W3C//DTD SVG 1.1//EN" "http://www.w3.org/Graphics/SVG/1.1/DTD/svg11.dtd">
<svg xmlns="http://www.w3.org/2000/svg" xmlns:xlink="http://www.w3.org/1999/xlink" version="1.1" width="430.30100000000004" height="273.99" xml:space="preserve">
<desc>Created with Fabric.js 1.6.0-rc.1</desc>
<defs></defs>
<g style="stroke: none; stroke-width: 1; stroke-dasharray: none; stroke-linecap: butt; stroke-linejoin: miter; stroke-miterlimit: 10; fill: none; fill-rule: nonzero; opacity: 1;" transform="translate(121.10000000000002 73.80000000000001) scale(0.37 0.37)" >
  <path d="M 501.333 170.667 c 0 23.467 -19.2 42.667 -42.667 42.667 H 288 c -23.467 0 -42.667 -19.2 -42.667 -42.667 l 0 0 C 245.333 147.2 264.533 128 288 128 h 170.667 C 482.133 128 501.333 147.2 501.333 170.667 L 501.333 170.667 z" style="stroke: none; stroke-width: 1; stroke-dasharray: none; stroke-linecap: butt; stroke-linejoin: miter; stroke-miterlimit: 10; fill: #FD7130; fill-rule: nonzero; opacity: 1;" transform=" matrix(1 0 0 1 0 0) " stroke-linecap="round" />
  <polygon points="288,256 288,213.33 330.67,213.33 " style="stroke: none; stroke-width: 1; stroke-dasharray: none; stroke-linecap: butt; stroke-linejoin: miter; stroke-miterlimit: 10; fill: #FD7130; fill-rule: nonzero; opacity: 1;" transform="  matrix(1 0 0 1 0 0) "/>
  <path d="M 266.667 341.333 C 266.667 364.8 247.467 384 224 384 H 53.333 c -23.467 0 -42.667 -19.2 -42.667 -42.667 l 0 0 c 0 -23.467 19.2 -42.667 42.667 -42.667 H 224 C 247.467 298.667 266.667 317.867 266.667 341.333 L 266.667 341.333 z" style="stroke: none; stroke-width: 1; stroke-dasharray: none; stroke-linecap: butt; stroke-linejoin: miter; stroke-miterlimit: 10; fill: #A0E8EB; fill-rule: nonzero; opacity: 1;" transform=" matrix(1 0 0 1 0 0) " stroke-linecap="round" />
  <polygon points="53.33,426.67 53.33,384 96,384 " style="stroke: none; stroke-width: 1; stroke-dasharray: none; stroke-linecap: butt; stroke-linejoin: miter; stroke-miterlimit: 10; fill: #A0E8EB; fill-rule: nonzero; opacity: 1;" transform="  matrix(1 0 0 1 0 0) "/>
  <rect x="245.33" y="42.67" rx="0" ry="0" width="21.33" height="21.33" style="stroke: none; stroke-width: 1; stroke-dasharray: none; stroke-linecap: butt; stroke-linejoin: miter; stroke-miterlimit: 10; fill: #6C747A; fill-rule: nonzero; opacity: 1;" transform=" matrix(1 0 0 1 0 0) "/>
  <rect x="224" y="448" rx="0" ry="0" width="64" height="21.33" style="stroke: none; stroke-width: 1; stroke-dasharray: none; stroke-linecap: butt; stroke-linejoin: miter; stroke-miterlimit: 10; fill: #6C747A; fill-rule: nonzero; opacity: 1;" transform=" matrix(1 0 0 1 0 0) "/>
  <rect x="106.67" y="85.33" rx="0" ry="0" width="298.67" height="21.33" style="stroke: none; stroke-width: 1; stroke-dasharray: none; stroke-linecap: butt; stroke-linejoin: miter; stroke-miterlimit: 10; fill: #6C747A; fill-rule: nonzero; opacity: 1;" transform=" matrix(1 0 0 1 0 0) "/>
  <rect x="106.67" y="405.33" rx="0" ry="0" width="298.67" height="21.33" style="stroke: none; stroke-width: 1; stroke-dasharray: none; stroke-linecap: butt; stroke-linejoin: miter; stroke-miterlimit: 10; fill: #6C747A; fill-rule: nonzero; opacity: 1;" transform=" matrix(1 0 0 1 0 0) "/>
  <path d="M 117.333 277.333 H 96 v -224 C 96 23.467 119.467 0 149.333 0 h 213.333 C 392.533 0 416 23.467 416 53.333 v 53.333 h -21.333 V 53.333 c 0 -18.133 -13.867 -32 -32 -32 H 149.333 c -18.133 0 -32 13.867 -32 32 V 277.333 z" style="stroke: none; stroke-width: 1; stroke-dasharray: none; stroke-linecap: butt; stroke-linejoin: miter; stroke-miterlimit: 10; fill: #6C747A; fill-rule: nonzero; opacity: 1;" transform=" matrix(1 0 0 1 0 0) " stroke-linecap="round" />
  <path d="M 362.667 512 H 149.333 C 119.467 512 96 488.533 96 458.667 v -53.333 h 21.333 v 53.333 c 0 18.133 13.867 32 32 32 h 213.333 c 18.133 0 32 -13.867 32 -32 v -224 H 416 v 224 C 416 488.533 392.533 512 362.667 512 z" style="stroke: none; stroke-width: 1; stroke-dasharray: none; stroke-linecap: butt; stroke-linejoin: miter; stroke-miterlimit: 10; fill: #6C747A; fill-rule: nonzero; opacity: 1;" transform=" matrix(1 0 0 1 0 0) " stroke-linecap="round" />
</g>
<g style="stroke: none; stroke-width: 1; stroke-dasharray: none; stroke-linecap: butt; stroke-linejoin: miter; stroke-miterlimit: 10; fill: none; fill-rule: nonzero; opacity: 1;" transform="translate(9.999999999999993 146) scale(0.23 0.23)" >
  <path d="M 128 405.333 c -29.867 0 -53.333 -23.467 -53.333 -53.333 v -21.333 c 0 -29.867 23.467 -53.333 53.333 -53.333 s 53.333 23.467 53.333 53.333 V 352 C 181.333 381.867 157.867 405.333 128 405.333 z M 128 298.667 c -18.133 0 -32 13.867 -32 32 V 352 c 0 18.133 13.867 32 32 32 s 32 -13.867 32 -32 v -21.333 C 160 312.533 146.133 298.667 128 298.667 z" style="stroke: none; stroke-width: 1; stroke-dasharray: none; stroke-linecap: butt; stroke-linejoin: miter; stroke-miterlimit: 10; fill: #6C747A; fill-rule: nonzero; opacity: 1;" transform=" matrix(1 0 0 1 0 0) " stroke-linecap="round" />
  <path d="M 234.667 512 h -21.333 v -28.8 c 0 -5.333 -1.067 -10.667 -4.267 -16 c -3.2 -5.333 -6.4 -8.533 -11.733 -11.733 l -42.667 -24.533 c -5.333 -3.2 -8.533 -6.4 -11.733 -11.733 c -3.2 -5.333 -4.267 -10.667 -4.267 -16 v -8.533 H 160 v 8.533 c 0 2.133 0 3.2 1.067 5.333 c 1.067 2.133 2.133 3.2 4.267 4.267 L 208 437.333 c 8.533 4.267 14.933 11.733 19.2 19.2 c 4.267 8.533 7.467 17.067 7.467 26.667 V 512 z" style="stroke: none; stroke-width: 1; stroke-dasharray: none; stroke-linecap: butt; stroke-linejoin: miter; stroke-miterlimit: 10; fill: #6C747A; fill-rule: nonzero; opacity: 1;" transform=" matrix(1 0 0 1 0 0) " stroke-linecap="round" />
  <path d="M 42.667 512 H 21.333 v -28.8 c 0 -9.6 2.133 -19.2 7.467 -26.667 C 33.067 448 40.534 441.6 48 437.333 L 90.667 412.8 c 2.133 -1.067 3.2 -2.133 4.267 -4.267 C 96 406.4 96 405.334 96 403.2 v -8.534 h 21.333 v 8.533 c 0 5.333 -1.067 10.667 -4.267 16 c -3.2 5.333 -6.4 8.533 -11.733 11.733 l -42.667 24.533 c -5.333 3.2 -8.533 6.4 -11.733 11.733 c -3.2 5.333 -4.267 10.667 -4.267 16 V 512 z" style="stroke: none; stroke-width: 1; stroke-dasharray: none; stroke-linecap: butt; stroke-linejoin: miter; stroke-miterlimit: 10; fill: #6C747A; fill-rule: nonzero; opacity: 1;" transform=" matrix(1 0 0 1 0 0) " stroke-linecap="round" />
  <path d="M 384 405.333 c -29.867 0 -53.333 -23.467 -53.333 -53.333 v -21.333 c 0 -29.867 23.467 -53.333 53.333 -53.333 s 53.333 23.467 53.333 53.333 V 352 C 437.333 381.867 413.867 405.333 384 405.333 z M 384 298.667 c -18.133 0 -32 13.867 -32 32 V 352 c 0 18.133 13.867 32 32 32 s 32 -13.867 32 -32 v -21.333 C 416 312.533 402.133 298.667 384 298.667 z" style="stroke: none; stroke-width: 1; stroke-dasharray: none; stroke-linecap: butt; stroke-linejoin: miter; stroke-miterlimit: 10; fill: #6C747A; fill-rule: nonzero; opacity: 1;" transform=" matrix(1 0 0 1 0 0) " stroke-linecap="round" />
  <path d="M 490.667 512 h -21.333 v -28.8 c 0 -5.333 -1.067 -10.667 -4.267 -16 c -3.2 -5.333 -6.4 -8.533 -11.733 -11.733 l -42.667 -24.533 c -5.333 -3.2 -8.533 -6.4 -11.733 -11.733 c -3.2 -5.333 -4.267 -10.667 -4.267 -16 v -8.533 H 416 v 8.533 c 0 2.133 0 3.2 1.067 5.333 c 1.067 2.133 2.133 3.2 4.267 4.267 L 464 437.333 c 8.533 4.267 14.933 11.733 19.2 19.2 c 4.267 8.533 7.467 17.067 7.467 26.667 V 512 z" style="stroke: none; stroke-width: 1; stroke-dasharray: none; stroke-linecap: butt; stroke-linejoin: miter; stroke-miterlimit: 10; fill: #6C747A; fill-rule: nonzero; opacity: 1;" transform=" matrix(1 0 0 1 0 0) " stroke-linecap="round" />
  <path d="M 298.667 512 h -21.333 v -28.8 c 0 -9.6 2.133 -19.2 7.467 -26.667 c 4.267 -8.533 11.733 -14.933 19.2 -19.2 l 42.667 -24.533 c 2.133 -1.067 3.2 -2.133 4.267 -4.267 C 352 406.4 352 405.334 352 403.2 v -8.534 h 21.333 v 8.533 c 0 5.333 -1.067 10.667 -4.267 16 c -3.2 5.333 -6.4 8.533 -11.733 11.733 l -42.667 24.533 c -5.333 3.2 -8.533 6.4 -11.733 11.733 c -3.2 5.333 -4.267 10.667 -4.267 16 V 512 z" style="stroke: none; stroke-width: 1; stroke-dasharray: none; stroke-linecap: butt; stroke-linejoin: miter; stroke-miterlimit: 10; fill: #6C747A; fill-rule: nonzero; opacity: 1;" transform=" matrix(1 0 0 1 0 0) " stroke-linecap="round" />
  <path d="M 490.667 170.667 c 0 11.733 -9.6 21.333 -21.333 21.333 h -256 C 201.6 192 192 182.4 192 170.667 V 21.333 C 192 9.6 201.6 0 213.333 0 h 256 c 11.733 0 21.333 9.6 21.333 21.333 V 170.667 z" style="stroke: none; stroke-width: 1; stroke-dasharray: none; stroke-linecap: butt; stroke-linejoin: miter; stroke-miterlimit: 10; fill: #FD7130; fill-rule: nonzero; opacity: 1;" transform=" matrix(1 0 0 1 0 0) " stroke-linecap="round" />
  <polygon points="458.67,234.67 458.67,192 416,192 " style="stroke: none; stroke-width: 1; stroke-dasharray: none; stroke-linecap: butt; stroke-linejoin: miter; stroke-miterlimit: 10; fill: #FD7130; fill-rule: nonzero; opacity: 1;" transform="  matrix(1 0 0 1 0 0) "/>
  <path d="M 320 234.667 C 320 246.4 310.4 256 298.667 256 h -256 c -11.733 0 -21.333 -9.6 -21.333 -21.333 V 85.333 C 21.333 73.6 30.933 64 42.667 64 h 256 C 310.4 64 320 73.6 320 85.333 V 234.667 z" style="stroke: none; stroke-width: 1; stroke-dasharray: none; stroke-linecap: butt; stroke-linejoin: miter; stroke-miterlimit: 10; fill: #A0E8EB; fill-rule: nonzero; opacity: 1;" transform=" matrix(1 0 0 1 0 0) " stroke-linecap="round" />
  <polygon points="53.33,298.67 53.33,256 96,256 " style="stroke: none; stroke-width: 1; stroke-dasharray: none; stroke-linecap: butt; stroke-linejoin: miter; stroke-miterlimit: 10; fill: #A0E8EB; fill-rule: nonzero; opacity: 1;" transform="  matrix(1 0 0 1 0 0) "/>
  <path d="M 298.667 64 H 192 v 106.667 C 192 182.4 201.6 192 213.333 192 H 320 V 85.333 C 320 73.6 310.4 64 298.667 64 z" style="stroke: none; stroke-width: 1; stroke-dasharray: none; stroke-linecap: butt; stroke-linejoin: miter; stroke-miterlimit: 10; fill: #9F672C; fill-rule: nonzero; opacity: 1;" transform=" matrix(1 0 0 1 0 0) " stroke-linecap="round" />
</g>
<g style="stroke: none; stroke-width: 1; stroke-dasharray: none; stroke-linecap: butt; stroke-linejoin: miter; stroke-miterlimit: 10; fill: none; fill-rule: nonzero; opacity: 1;" transform="translate(280.1 10) scale(2.03 2.03)" >
  <path d="M 48 19.929 v 21.141 C 48 43.793 45.793 46 43.071 46 H 22 L 12 57 V 46 H 4.929 C 2.207 46 0 43.793 0 41.071 l 0 -21.141 C 0 17.207 2.207 15 4.929 15 h 38.141 C 45.793 15 48 17.207 48 19.929 z" style="stroke: none; stroke-width: 1; stroke-dasharray: none; stroke-linecap: butt; stroke-linejoin: miter; stroke-miterlimit: 10; fill: #03d9ff; fill-rule: nonzero; opacity: 1;" transform=" matrix(1 0 0 1 0 0) " stroke-linecap="round" />
  <path d="M 53.071 1 H 14.929 C 12.207 1 10 3.207 10 5.93 V 15 h 33.071 C 45.793 15 48 17.207 48 19.93 V 32 h 5.071 C 55.793 32 58 29.793 58 27.07 V 5.93 C 58 3.207 55.793 1 53.071 1 z" style="stroke: none; stroke-width: 1; stroke-dasharray: none; stroke-linecap: butt; stroke-linejoin: miter; stroke-miterlimit: 10; fill: #f08c57; fill-rule: nonzero; opacity: 1;" transform=" matrix(1 0 0 1 0 0) " stroke-linecap="round" />
  <circle cx="11" cy="31" r="3" style="stroke: none; stroke-width: 1; stroke-dasharray: none; stroke-linecap: butt; stroke-linejoin: miter; stroke-miterlimit: 10; fill: #FFFFFF; fill-rule: nonzero; opacity: 1;" transform="  matrix(1 0 0 1 0 0) "/>
  <circle cx="24" cy="31" r="3" style="stroke: none; stroke-width: 1; stroke-dasharray: none; stroke-linecap: butt; stroke-linejoin: miter; stroke-miterlimit: 10; fill: #FFFFFF; fill-rule: nonzero; opacity: 1;" transform="  matrix(1 0 0 1 0 0) "/>
  <circle cx="37" cy="31" r="3" style="stroke: none; stroke-width: 1; stroke-dasharray: none; stroke-linecap: butt; stroke-linejoin: miter; stroke-miterlimit: 10; fill: #FFFFFF; fill-rule: nonzero; opacity: 1;" transform="  matrix(1 0 0 1 0 0) "/>
</g>
<g style="stroke: none; stroke-width: 1; stroke-dasharray: none; stroke-linecap: butt; stroke-linejoin: miter; stroke-miterlimit: 10; fill: none; fill-rule: nonzero; opacity: 1;" transform="translate(10 80.66) rotate(302.87) scale(0.88 0.88)" >
  <path d="M 91.819 64.288 s -1.673 -8.682 -2.202 -17.61 h -6.606 c -0.528 8.929 -2.201 17.61 -2.201 17.61 c 2.015 1.997 2.258 6.277 2.245 8.433 h -0.013 v 86.315 h 5.952 l 0.579 -86.315 c -0.013 -2.157 0.231 -6.436 2.246 -8.433 z" style="stroke: none; stroke-width: 1; stroke-dasharray: none; stroke-linecap: butt; stroke-linejoin: miter; stroke-miterlimit: 10; fill: #313b34; fill-rule: nonzero; opacity: 0;" transform="" stroke-linecap="round" />
  <path d="M 99.773 158.042 c -9.086 -13.797 -7.578 -31.003 -7.578 -31.003 H 80.066 s 1.396 17.206 -7.689 31.003 c -2.909 4.417 -4.715 9.067 -5.59 13.643 h 38.562 c -0.867 -4.575 -2.668 -9.226 -5.576 -13.643 z m -13.754 45.639 c 10.926 0 18.953 -10.317 19.854 -23.067 h -39.63 c 0.867 12.75 8.848 23.067 19.776 23.067 z" style="stroke: none; stroke-width: 1; stroke-dasharray: none; stroke-linecap: butt; stroke-linejoin: miter; stroke-miterlimit: 10; fill: #313b34; fill-rule: nonzero; opacity: 0;" transform="" stroke-linecap="round" />
  <path d="M 105.348 171.685 H 66.786 a 34.961 34.961 0 0 0 -0.544 8.929 h 39.63 a 34.752 34.752 0 0 0 -0.524 -8.929 z" style="stroke: none; stroke-width: 1; stroke-dasharray: none; stroke-linecap: butt; stroke-linejoin: miter; stroke-miterlimit: 10; fill: #c8cf99; fill-rule: nonzero; opacity: 0;" transform="" stroke-linecap="round" />
  <path d="M 0.142 80.01 L 0 96.717 l 13.828 2.797 a 71.066 71.066 0 0 0 4.175 14.531 l -10.677 9.091 l 7.944 14.703 l 14.407 -4.526 a 71.913 71.913 0 0 0 10.314 9.975 l -4.774 13.752 l 14.295 8.649 l 10.202 -11.355 c 0.108 0.04 0.26 0.074 0.26 0.112 v -25.539 c -14.138 -8.672 -24.191 -24.545 -24.191 -42.694 c 0 -27.441 22.28 -49.687 49.722 -49.687 s 49.551 22.246 49.551 49.687 c 0 18.493 -10.345 34.625 -25.227 43.18 v 24.233 l 10.169 11.267 l 14.545 -8.276 l -4.908 -14.287 a 71.855 71.855 0 0 0 10.165 -10.201 l 14.192 5.059 l 8.768 -14.219 l -11.423 -10.496 l -0.185 -0.028 a 71.13 71.13 0 0 0 3.681 -13.763 l 14.893 -3.043 l 0.14 -16.709 l -14.977 -3.03 a 71.043 71.043 0 0 0 -3.626 -13.788 l 11.278 -9.604 l -7.945 -14.699 l -14.565 4.575 a 71.858 71.858 0 0 0 -10.075 -10.254 l 4.693 -13.521 l -14.296 -8.65 l -9.682 10.705 c -4.717 -1.875 -9.655 -4.487 -14.816 -5.326 L 93.347 0.443 L 76.644 0 l -3.131 15.208 c -5.175 0.785 -10.188 2.741 -14.947 4.576 l -8.837 -9.488 l -14.476 8.508 l 4.279 12.476 A 72.404 72.404 0 0 0 28.14 42.784 l -12.274 -4.352 l -8.763 14.237 l 10.188 9.369 a 71.236 71.236 0 0 0 -3.852 15.257 L 0.142 80.01 z" style="stroke: none; stroke-width: 1; stroke-dasharray: none; stroke-linecap: butt; stroke-linejoin: miter; stroke-miterlimit: 10; fill: #62cced; fill-rule: nonzero; opacity: 1;" transform="" stroke-linecap="round" />
</g>
<g style="stroke: none; stroke-width: 1; stroke-dasharray: none; stroke-linecap: butt; stroke-linejoin: miter; stroke-miterlimit: 10; fill: none; fill-rule: nonzero; opacity: 1;" transform="translate(286.84000000000003 166) scale(0.06 0.06)" >
  <path d="M 1310.824 783.463 l 111.438 -22.778 l 1.182 -140.009 l -115.875 -23.436 c -7.375 -42.235 -19.218 -82.998 -34.989 -121.769 l 89.471 -76.182 l -66.571 -123.202 l -120.721 37.925 c -25.931 -30.629 -54.875 -58.664 -86.442 -83.585 l 40.012 -115.248 l -119.792 -72.468 l -86.06 95.147 c -37.552 -13.669 -77.146 -13.39 -117.856 -19.358 L 781.136 3.728 L 641.166 0 L 613.36 116.676 l 1.813 -1.061 c -39.45 6.764 -77.522 14.822 -113.973 28.928 l -84.603 -95.167 l -121.236 69.356 l 41.446 119.719 c -31.114 25.603 -59.594 54.163 -85.019 85.487 l -118.847 -42.395 L 59.51 400.701 l 95.74 87.957 l 1.556 0.228 c -13.936 36.816 -24.347 75.385 -30.842 115.334 L 1.176 629.722 L 0 769.74 l 125.509 25.392 a 594.858 594.858 0 0 0 30.383 115.533 l -94.513 80.474 l 66.581 123.18 l 122.056 -38.334 c 25.195 31.364 53.475 60.191 84.43 85.934 l -39.333 113.303 l 119.802 72.491 l 81.125 -89.709 c 39.534 15.713 80.91 37.604 124.165 44.635 l 21.016 124.82 l 139.965 3.713 l 26.231 -127.441 c 43.367 -6.569 85.389 -22.961 125.261 -38.345 l 74.055 79.517 l 121.302 -71.295 l -35.856 -104.545 c 35.275 -28.345 67.358 -60.88 95.455 -96.404 l 102.854 36.458 l 73.439 -119.298 l -85.371 -78.503 c 15.216 -40.645 26.157 -83.473 32.268 -127.853 z m -602.126 242.76 c -179.607 -4.758 -321.354 -154.247 -316.602 -333.854 c 4.78 -179.609 154.238 -321.359 333.859 -316.587 c 179.611 4.753 321.354 154.221 316.596 333.835 c -4.764 179.619 -154.227 321.362 -333.853 316.606 z" style="stroke: none; stroke-width: 1; stroke-dasharray: none; stroke-linecap: butt; stroke-linejoin: miter; stroke-miterlimit: 10; fill: #f7a40f; fill-rule: nonzero; opacity: 1;" transform=" matrix(0.9999998650686173 0 0 0.9999998650686173 0 0) " stroke-linecap="round" />
  <path d="M 925.146 974.497 a 357.494 357.494 0 0 0 53.815 -47.915 a 354.584 354.584 0 0 0 49.183 -68.509 l 92.815 16.858 l 46.104 -112.213 l -94.223 -61.881 l -1.115 0.04 c 1.969 -52.113 -7.524 -104.421 -28.278 -152.97 l 67.096 -64.684 l -64.177 -102.99 l -98.627 37.82 c -37.824 -32.299 -80.582 -55.328 -125.504 -69.104 l -16.842 -109.242 l -121.155 -6.898 l -26.835 105.839 c -48.208 8.374 -94.949 26.726 -136.839 54.947 l -0.104 -0.146 l -94.391 -59.006 l -84.303 87.243 l 64.65 92.303 l 2.549 0.947 c -25.922 46.394 -40.527 97.204 -43.953 148.559 l -106.171 32.441 l 10.511 120.888 l 112.08 11.754 l 9.835 -5.405 c 19.141 46.158 48.338 88.988 87.563 124.971 c 0.89 0.782 1.762 1.53 2.657 2.313 l -35.963 95.208 l 102.099 65.563 l 77.813 -81.49 l 0.131 -0.827 c 48.372 13.073 98.838 15.663 147.912 7.919 l 0.3 3.252 l 66.562 89.213 l 110.233 -50.67 l -25.428 -104.128 z M 555.069 865.026 c -98.145 -90.039 -104.742 -242.586 -14.708 -340.759 c 90.052 -98.137 242.606 -104.746 340.779 -14.702 c 98.153 90.045 104.732 242.607 14.714 340.76 c -90.066 98.142 -242.612 104.747 -340.785 14.701 z" style="stroke: none; stroke-width: 1; stroke-dasharray: none; stroke-linecap: butt; stroke-linejoin: miter; stroke-miterlimit: 10; fill: #fcba14; fill-rule: nonzero; opacity: 1;" transform=" matrix(0.9999998650686173 0 0 0.9999998650686173 0 0) " stroke-linecap="round" />
  <path d="M 326.651 1445.192 s -162.018 -1.266 -167.082 -158.219 c 0 0 0 -215.807 235.429 -190.495 c 0 0 -15.188 -174.985 194.924 -190.178 c 0 0 -37.969 -139.391 75.948 -260.901 c 0 0 118.977 -113.995 260.741 -65.898 c 0 0 156.95 -356.979 610.087 -237.997 c 0 0 268.342 80.985 329.093 354.387 c 0 0 369.598 73.403 280.999 425.279 c 0 0 101.255 51.891 70.877 201.248 c 0 0 -20.252 117.71 -159.48 122.772 H 326.651 z" style="stroke: none; stroke-width: 1; stroke-dasharray: none; stroke-linecap: butt; stroke-linejoin: miter; stroke-miterlimit: 10; fill: #b1e7fe; fill-rule: nonzero; opacity: 1;" transform=" matrix(0.9999998650686173 0 0 0.9999998650686173 0 0) " stroke-linecap="round" />
</g>
</svg>